<?xml version="1.0" encoding="utf-8"?>
<!-- Generator: Adobe Illustrator 16.0.0, SVG Export Plug-In . SVG Version: 6.00 Build 0)  -->
<!DOCTYPE svg PUBLIC "-//W3C//DTD SVG 1.1//EN" "http://www.w3.org/Graphics/SVG/1.1/DTD/svg11.dtd">
<svg version="1.1" id="Layer_1" xmlns="http://www.w3.org/2000/svg" xmlns:xlink="http://www.w3.org/1999/xlink" x="0px" y="0px"
	 width="236.66px" height="232.18px" viewBox="0 0 236.66 232.18" enable-background="new 0 0 236.66 232.18" xml:space="preserve">
<g>
	<g opacity="0.45">
		
			<linearGradient id="SVGID_1_" gradientUnits="userSpaceOnUse" x1="60.6602" y1="913.0879" x2="377.6865" y2="913.0879" gradientTransform="matrix(0.7465 0 0 0.1378 -45.2828 84.5027)">
			<stop  offset="0.0182" style="stop-color:#FFFFFF"/>
			<stop  offset="0.1374" style="stop-color:#E9F6FB"/>
			<stop  offset="0.2648" style="stop-color:#DCF1F9"/>
			<stop  offset="0.3901" style="stop-color:#D8F0F8"/>
			<stop  offset="0.638" style="stop-color:#C9D3D9"/>
			<stop  offset="0.7747" style="stop-color:#C1C3C8"/>
		</linearGradient>
		<path fill="url(#SVGID_1_)" d="M236.66,210.326c0,12.068-52.977,21.854-118.332,21.854C52.979,232.18,0,222.395,0,210.326
			c0-12.066,52.979-21.854,118.328-21.854C183.684,188.473,236.66,198.26,236.66,210.326z"/>
	</g>
	<g>
		<g>
			<linearGradient id="SVGID_2_" gradientUnits="userSpaceOnUse" x1="76.9531" y1="68.293" x2="117.0767" y2="-6.6455">
				<stop  offset="0" style="stop-color:#F99B1C"/>
				<stop  offset="0.8791" style="stop-color:#FBF172"/>
				<stop  offset="1" style="stop-color:#FDF7BA"/>
			</linearGradient>
			<path fill="url(#SVGID_2_)" d="M150.094,2.923C124.059-2.417,86.006-4.754,56.3,35.635c-7.344,13.352-13.35,46.395-5.007,54.406
				c8.344,8.012,16.022,8.679,22.03,6.342C79.331,94.047,78.998,18.945,150.094,2.923z"/>
			<linearGradient id="SVGID_3_" gradientUnits="userSpaceOnUse" x1="92.4526" y1="77.709" x2="88.3223" y2="24.0136">
				<stop  offset="0" style="stop-color:#F99B1C"/>
				<stop  offset="0.8791" style="stop-color:#FBF172"/>
				<stop  offset="1" style="stop-color:#FDF7BA"/>
			</linearGradient>
			<path fill="url(#SVGID_3_)" d="M111.708,14.939c-20.026,7.676-38.053,16.354-43.726,57.744
				c11.682,32.377,42.725,37.718,42.725,37.718C98.69,84.031,83.338,49.318,111.708,14.939z"/>
			<linearGradient id="SVGID_4_" gradientUnits="userSpaceOnUse" x1="62.3076" y1="74.4805" x2="90.042" y2="0.721">
				<stop  offset="0" style="stop-color:#F99B1C"/>
				<stop  offset="0.8791" style="stop-color:#FBF172"/>
				<stop  offset="1" style="stop-color:#FDF7BA"/>
			</linearGradient>
			<path fill="url(#SVGID_4_)" d="M86.675,2.589c-16.689,8.679-35.382,20.695-44.06,51.403c1,24.032,21.029,47.73,36.716,49.066
				C70.318,87.036,44.284,29.96,86.675,2.589z"/>
			<linearGradient id="SVGID_5_" gradientUnits="userSpaceOnUse" x1="49.749" y1="83.5186" x2="57.4204" y2="15.6603">
				<stop  offset="0" style="stop-color:#F99B1C"/>
				<stop  offset="0.8791" style="stop-color:#FBF172"/>
				<stop  offset="1" style="stop-color:#FDF7BA"/>
			</linearGradient>
			<path fill="url(#SVGID_5_)" d="M60.306,14.604C47.955,24.617,35.271,53.658,33.602,76.021
				c-0.333,23.365,6.341,51.402,27.705,56.076c-1.669-20.36-6.008-58.078-7.009-59.08C48.623,61.334,42.95,41.975,60.306,14.604z"/>
			<linearGradient id="SVGID_6_" gradientUnits="userSpaceOnUse" x1="43.4141" y1="125.8584" x2="26.892" y2="31.4462">
				<stop  offset="0" style="stop-color:#F99B1C"/>
				<stop  offset="0.8791" style="stop-color:#FBF172"/>
				<stop  offset="1" style="stop-color:#FDF7BA"/>
			</linearGradient>
			<path fill="url(#SVGID_6_)" d="M37.608,31.293c-9.68,10.682-22.366,52.739-14.354,90.125
				c16.689,26.701,31.043,19.025,31.043,19.025c3.003-5.007,2.669-56.411,1.001-56.745C41.945,81.363,29.264,59.666,37.608,31.293z"
				/>
			<radialGradient id="SVGID_7_" cx="105.6543" cy="184.9932" r="148.9557" gradientUnits="userSpaceOnUse">
				<stop  offset="0" style="stop-color:#FDF7BA"/>
				<stop  offset="0.0282" style="stop-color:#FDF7B7"/>
				<stop  offset="0.0579" style="stop-color:#FDF6AD"/>
				<stop  offset="0.0882" style="stop-color:#FDF49C"/>
				<stop  offset="0.119" style="stop-color:#FDF385"/>
				<stop  offset="0.1502" style="stop-color:#FDF061"/>
				<stop  offset="0.1813" style="stop-color:#FDEE22"/>
				<stop  offset="0.1915" style="stop-color:#FCEA22"/>
				<stop  offset="0.3707" style="stop-color:#F9C01E"/>
				<stop  offset="0.5024" style="stop-color:#F9A51D"/>
				<stop  offset="0.5714" style="stop-color:#F99B1C"/>
				<stop  offset="0.8297" style="stop-color:#FBF172"/>
				<stop  offset="1" style="stop-color:#FDF7BA"/>
			</radialGradient>
			<path fill="url(#SVGID_7_)" d="M56.966,138.107C44.284,100.723,45.951,66.676,56.3,41.641
				c-3.672,22.031-0.998,41.725,23.366,59.415c21.694,24.366,80.777,62.42,54.406,84.448
				C107.703,207.533,71.32,192.514,56.966,138.107z"/>
			<radialGradient id="SVGID_8_" cx="125.127" cy="191.4854" r="167.8246" gradientUnits="userSpaceOnUse">
				<stop  offset="0" style="stop-color:#FDF7BA"/>
				<stop  offset="0.0282" style="stop-color:#FDF7B7"/>
				<stop  offset="0.0579" style="stop-color:#FDF6AD"/>
				<stop  offset="0.0882" style="stop-color:#FDF49C"/>
				<stop  offset="0.119" style="stop-color:#FDF385"/>
				<stop  offset="0.1502" style="stop-color:#FDF061"/>
				<stop  offset="0.1813" style="stop-color:#FDEE22"/>
				<stop  offset="0.1915" style="stop-color:#FCEA22"/>
				<stop  offset="0.3707" style="stop-color:#F9C01E"/>
				<stop  offset="0.5024" style="stop-color:#F9A51D"/>
				<stop  offset="0.5714" style="stop-color:#F99B1C"/>
				<stop  offset="0.8297" style="stop-color:#FBF172"/>
				<stop  offset="1" style="stop-color:#FDF7BA"/>
			</radialGradient>
			<path fill="url(#SVGID_8_)" d="M69.651,38.639c-7.011,14.351-14.352,53.068,17.69,87.116
				c32.042,34.049,41.391,47.065,41.391,47.065c8.344-4.005,20.361-33.713,5.34-50.068C119.053,106.396,69.316,99.055,69.651,38.639
				z"/>
			<radialGradient id="SVGID_9_" cx="103.8833" cy="200.3359" r="162.8406" gradientUnits="userSpaceOnUse">
				<stop  offset="0" style="stop-color:#FDF7BA"/>
				<stop  offset="0.0282" style="stop-color:#FDF7B7"/>
				<stop  offset="0.0579" style="stop-color:#FDF6AD"/>
				<stop  offset="0.0882" style="stop-color:#FDF49C"/>
				<stop  offset="0.119" style="stop-color:#FDF385"/>
				<stop  offset="0.1502" style="stop-color:#FDF061"/>
				<stop  offset="0.1813" style="stop-color:#FDEE22"/>
				<stop  offset="0.1915" style="stop-color:#FCEA22"/>
				<stop  offset="0.3707" style="stop-color:#F9C01E"/>
				<stop  offset="0.5024" style="stop-color:#F9A51D"/>
				<stop  offset="0.5714" style="stop-color:#F99B1C"/>
				<stop  offset="0.8297" style="stop-color:#FBF172"/>
				<stop  offset="1" style="stop-color:#FDF7BA"/>
			</radialGradient>
			<path fill="url(#SVGID_9_)" d="M37.942,76.021c-8.347,18.025-12.688,46.063-0.003,77.439
				c10.684,25.367,33.381,48.399,64.089,37.051c-8.011-11.684-25.369-28.705-30.042-37.719c-4.671-9.012-10.68-19.359-18.023-27.371
				S36.94,98.719,37.942,76.021z"/>
			<radialGradient id="SVGID_10_" cx="108.605" cy="183.8135" r="169.9586" gradientUnits="userSpaceOnUse">
				<stop  offset="0" style="stop-color:#FDF7BA"/>
				<stop  offset="0.0282" style="stop-color:#FDF7B7"/>
				<stop  offset="0.0579" style="stop-color:#FDF6AD"/>
				<stop  offset="0.0882" style="stop-color:#FDF49C"/>
				<stop  offset="0.119" style="stop-color:#FDF385"/>
				<stop  offset="0.1502" style="stop-color:#FDF061"/>
				<stop  offset="0.1813" style="stop-color:#FDEE22"/>
				<stop  offset="0.1915" style="stop-color:#FCEA22"/>
				<stop  offset="0.3707" style="stop-color:#F9C01E"/>
				<stop  offset="0.5024" style="stop-color:#F9A51D"/>
				<stop  offset="0.5714" style="stop-color:#F99B1C"/>
				<stop  offset="0.8297" style="stop-color:#FBF172"/>
				<stop  offset="1" style="stop-color:#FDF7BA"/>
			</radialGradient>
			<path fill="url(#SVGID_10_)" d="M17.58,66.342c-5.34,14.02-13.02,67.76,20.359,104.143c14.689,10.682,49.401,28.373,56.412,15.02
				c6.34-16.688-13.018-29.039-37.051-43.058C33.268,128.428,16.579,107.731,17.58,66.342z"/>
			<linearGradient id="SVGID_11_" gradientUnits="userSpaceOnUse" x1="167.4805" y1="175.6006" x2="104.7941" y2="212.1309">
				<stop  offset="0" style="stop-color:#ED2024"/>
				<stop  offset="0.8846" style="stop-color:#F8991D"/>
				<stop  offset="1" style="stop-color:#FFE177"/>
			</linearGradient>
			<path fill="url(#SVGID_11_)" d="M78.664,204.531c18.358,7.676,47.063,15.689,77.772,0.333
				c20.026-13.685,22.696-42.056,22.696-42.056C161.443,175.492,100.362,199.857,78.664,204.531z"/>
			<linearGradient id="SVGID_12_" gradientUnits="userSpaceOnUse" x1="193.2109" y1="164.4551" x2="127.3683" y2="212.2591">
				<stop  offset="0" style="stop-color:#ED2024"/>
				<stop  offset="0.8846" style="stop-color:#F8991D"/>
				<stop  offset="1" style="stop-color:#FFE177"/>
			</linearGradient>
			<path fill="url(#SVGID_12_)" d="M129.399,219.217c17.356-7.342,31.044-22.028,35.048-46.396
				c10.681-17.354,33.38-37.717,33.045-36.715c5.674,12.683,9.682,34.377-5.674,52.736
				C176.463,207.202,144.084,216.217,129.399,219.217z"/>
			<linearGradient id="SVGID_13_" gradientUnits="userSpaceOnUse" x1="177.3633" y1="116.1211" x2="139.9305" y2="199.104">
				<stop  offset="0" style="stop-color:#ED2024"/>
				<stop  offset="0.8846" style="stop-color:#F8991D"/>
				<stop  offset="1" style="stop-color:#FFE177"/>
			</linearGradient>
			<path fill="url(#SVGID_13_)" d="M118.385,203.865c28.706-5.34,52.738-17.357,64.085-43.059
				c4.006-16.021-11.348-48.734-24.031-58.748C161.108,120.084,168.787,168.482,118.385,203.865z"/>
			<linearGradient id="SVGID_14_" gradientUnits="userSpaceOnUse" x1="190.707" y1="93.7949" x2="156.4311" y2="190.7591">
				<stop  offset="0" style="stop-color:#ED2024"/>
				<stop  offset="0.8846" style="stop-color:#F8991D"/>
				<stop  offset="1" style="stop-color:#FFE177"/>
			</linearGradient>
			<path fill="url(#SVGID_14_)" d="M158.439,201.193c25.701-22.361,29.036-52.738-2.338-84.449
				c-6.34-38.052,12.353-42.391,17.025-40.388s34.045,12.351,35.379,42.058C209.842,148.123,206.171,178.494,158.439,201.193z"/>
			<linearGradient id="SVGID_15_" gradientUnits="userSpaceOnUse" x1="234.3076" y1="13.5098" x2="175.2292" y2="202.4706">
				<stop  offset="0" style="stop-color:#ED2024"/>
				<stop  offset="0.8846" style="stop-color:#F8991D"/>
				<stop  offset="1" style="stop-color:#FFE177"/>
			</linearGradient>
			<path fill="url(#SVGID_15_)" d="M182.807,202.861c20.693-33.379,19.693-62.083,3.003-94.462
				c-6.677-36.048,8.68-42.724,16.356-42.39c7.676,0.334,22.362,22.363,23.029,42.725
				C225.863,129.095,225.529,159.47,182.807,202.861z"/>
			<linearGradient id="SVGID_16_" gradientUnits="userSpaceOnUse" x1="142.3188" y1="174.0215" x2="140.5453" y2="84.7634">
				<stop  offset="0" style="stop-color:#ED2024"/>
				<stop  offset="0.8846" style="stop-color:#F8991D"/>
				<stop  offset="1" style="stop-color:#FFE177"/>
			</linearGradient>
			<path fill="url(#SVGID_16_)" d="M142.082,185.842c25.703-22.033,32.381-51.404,25.703-84.118
				c-11.349-26.368-56.141-17.356-56.141-17.356C115.985,96.051,154.768,138.443,142.082,185.842z"/>
			<radialGradient id="SVGID_17_" cx="154.7896" cy="38.5234" r="123.1091" gradientUnits="userSpaceOnUse">
				<stop  offset="0.0165" style="stop-color:#FFE177"/>
				<stop  offset="0.0611" style="stop-color:#FED669"/>
				<stop  offset="0.1461" style="stop-color:#FCB943"/>
				<stop  offset="0.2308" style="stop-color:#F8991D"/>
				<stop  offset="0.522" style="stop-color:#F15F22"/>
				<stop  offset="0.8187" style="stop-color:#F8991D"/>
				<stop  offset="1" style="stop-color:#FFE177"/>
			</radialGradient>
			<path fill="url(#SVGID_17_)" d="M187.812,165.479c8.012-26.703,4.34-47.729-31.711-72.764
				c-21.693-26.705-58.078-46.732-42.724-61.086c15.354-14.353,54.741-7.678,71.765,12.35S220.189,106.73,187.812,165.479z"/>
			<radialGradient id="SVGID_18_" cx="147.5747" cy="33.5635" r="125.0212" gradientUnits="userSpaceOnUse">
				<stop  offset="0.0165" style="stop-color:#FFE177"/>
				<stop  offset="0.0611" style="stop-color:#FED669"/>
				<stop  offset="0.1461" style="stop-color:#FCB943"/>
				<stop  offset="0.2308" style="stop-color:#F8991D"/>
				<stop  offset="0.522" style="stop-color:#F15F22"/>
				<stop  offset="0.8187" style="stop-color:#F8991D"/>
				<stop  offset="1" style="stop-color:#FFE177"/>
			</radialGradient>
			<path fill="url(#SVGID_18_)" d="M207.506,155.131c5.341-37.05,6.343-58.746-45.061-85.116
				c-52.739-28.039-62.087-48.399-42.726-55.074c19.36-6.677,66.759,9.011,80.443,41.723
				C213.849,89.373,223.527,104.728,207.506,155.131z"/>
			<radialGradient id="SVGID_19_" cx="125.7295" cy="44.3125" r="126.0244" gradientUnits="userSpaceOnUse">
				<stop  offset="0.0165" style="stop-color:#FFE177"/>
				<stop  offset="0.0611" style="stop-color:#FED669"/>
				<stop  offset="0.1461" style="stop-color:#FCB943"/>
				<stop  offset="0.2308" style="stop-color:#F8991D"/>
				<stop  offset="0.522" style="stop-color:#F15F22"/>
				<stop  offset="0.8187" style="stop-color:#F8991D"/>
				<stop  offset="1" style="stop-color:#FFE177"/>
			</radialGradient>
			<path fill="url(#SVGID_19_)" d="M180.803,147.788c-0.334-33.046-23.702-93.796-46.064-112.82
				c-22.362-19.026-35.379-6.677-37.048-0.335c-1.669,6.342-5.005,27.705,10.681,41.057c15.688,13.351,15.02,14.02,26.702,19.359
				C146.756,100.391,174.46,118.748,180.803,147.788z"/>
			<radialGradient id="SVGID_20_" cx="129.084" cy="34.915" r="156.7224" gradientUnits="userSpaceOnUse">
				<stop  offset="0.0165" style="stop-color:#FFE177"/>
				<stop  offset="0.0611" style="stop-color:#FED669"/>
				<stop  offset="0.1461" style="stop-color:#FCB943"/>
				<stop  offset="0.2308" style="stop-color:#F8991D"/>
				<stop  offset="0.522" style="stop-color:#F15F22"/>
				<stop  offset="0.8187" style="stop-color:#F8991D"/>
				<stop  offset="1" style="stop-color:#FFE177"/>
			</radialGradient>
			<path fill="url(#SVGID_20_)" d="M224.863,155.131c3.004-45.729-8.004-89.455-72.096-108.481
				c-29.709-9.013-55.412-15.688-45.731-25.367c9.68-9.681,44.062-15.69,68.761-0.001C219.02,48.734,240.844,98.049,224.863,155.131
				z"/>
			<radialGradient id="SVGID_21_" cx="113.9146" cy="179.0928" r="152.8658" gradientUnits="userSpaceOnUse">
				<stop  offset="0" style="stop-color:#FDF7BA"/>
				<stop  offset="0.0282" style="stop-color:#FDF7B7"/>
				<stop  offset="0.0579" style="stop-color:#FDF6AD"/>
				<stop  offset="0.0882" style="stop-color:#FDF49C"/>
				<stop  offset="0.119" style="stop-color:#FDF385"/>
				<stop  offset="0.1502" style="stop-color:#FDF061"/>
				<stop  offset="0.1813" style="stop-color:#FDEE22"/>
				<stop  offset="0.1915" style="stop-color:#FCEA22"/>
				<stop  offset="0.3707" style="stop-color:#F9C01E"/>
				<stop  offset="0.5024" style="stop-color:#F9A51D"/>
				<stop  offset="0.5714" style="stop-color:#F99B1C"/>
				<stop  offset="0.8297" style="stop-color:#FBF172"/>
				<stop  offset="1" style="stop-color:#FDF7BA"/>
			</radialGradient>
			<path fill="url(#SVGID_21_)" d="M88.344,58.998c8.011,22.698,17.356,33.712,37.049,45.729
				c19.693,12.018,31.043,20.697,33.38,49.07c2.336,28.369-27.036,61.746-67.091,57.741c-40.055-4.005-77.105-49.399-85.116-83.11
				c12.016,22.027,38.052,44.059,64.086,45.729c6.68-5.684-17.513-40.498-17.513-40.498s42.483,23.603,51.285,29.418
				c-6.465-7.924-12.931-50.661-12.931-50.661s17.638,28.972,22.888,29.029c2.001-19.359-1.673-23.7-11.018-34.715
				C94.018,95.715,87.342,73.352,88.344,58.998z"/>
			<radialGradient id="SVGID_22_" cx="123.2212" cy="30.8564" r="157.7582" gradientUnits="userSpaceOnUse">
				<stop  offset="0.0165" style="stop-color:#FFE177"/>
				<stop  offset="0.0611" style="stop-color:#FED669"/>
				<stop  offset="0.1461" style="stop-color:#FCB943"/>
				<stop  offset="0.2308" style="stop-color:#F8991D"/>
				<stop  offset="0.522" style="stop-color:#F15F22"/>
				<stop  offset="0.8187" style="stop-color:#F8991D"/>
				<stop  offset="1" style="stop-color:#FFE177"/>
			</radialGradient>
			<path fill="url(#SVGID_22_)" d="M150.428,123.422c-10.346-12.686-33.712-21.363-46.395-33.047
				c-12.686-11.683-25.703-40.721-8.68-66.423c17.023-25.701,50.739-26.369,68.428-19.026c17.689,7.345,53.071,33.047,64.42,69.428
				c-8.68-13.686-22.361-32.71-50.736-42.39c5.77,3.976,13.116,13.085,16.938,19.55c-11.757-6.17-23.805-11.166-41.144-12.93
				c2.35,8.521,8.229,15.281,17.926,26.742c-16.75-10.873-44.133-23.516-45.458-21.014c2.848,7.201,12.252,21.896,18.716,35.414
				c-10.872-8.229-22.923-14.695-26.924-14.111c1.359,9.996,10.107,17.85,14.287,22.927
				C141.152,99.891,147.422,112.407,150.428,123.422z"/>
		</g>
	</g>
</g>
</svg>
