<?xml version="1.0" encoding="utf-8"?>
<!-- Generator: Adobe Illustrator 16.0.0, SVG Export Plug-In . SVG Version: 6.00 Build 0)  -->
<!DOCTYPE svg PUBLIC "-//W3C//DTD SVG 1.1//EN" "http://www.w3.org/Graphics/SVG/1.1/DTD/svg11.dtd">
<svg version="1.1" id="Layer_1" xmlns="http://www.w3.org/2000/svg" xmlns:xlink="http://www.w3.org/1999/xlink" x="0px" y="0px"
	 width="236.657px" height="234.639px" viewBox="0 0 236.657 234.639" enable-background="new 0 0 236.657 234.639"
	 xml:space="preserve">
<g>
	<g opacity="0.45">
		
			<linearGradient id="SVGID_1_" gradientUnits="userSpaceOnUse" x1="99.4404" y1="149.5742" x2="416.4629" y2="149.5742" gradientTransform="matrix(0.7465 0 0 0.1378 -74.2323 192.175)">
			<stop  offset="0.0182" style="stop-color:#FFFFFF"/>
			<stop  offset="0.1374" style="stop-color:#E9F6FB"/>
			<stop  offset="0.2648" style="stop-color:#DCF1F9"/>
			<stop  offset="0.3901" style="stop-color:#D8F0F8"/>
			<stop  offset="0.638" style="stop-color:#C9D3D9"/>
			<stop  offset="0.7747" style="stop-color:#C1C3C8"/>
		</linearGradient>
		<path fill="url(#SVGID_1_)" d="M236.657,212.787c0,12.064-52.976,21.852-118.326,21.852C52.977,234.639,0,224.852,0,212.787
			c0-12.068,52.977-21.854,118.331-21.854C183.682,190.934,236.657,200.719,236.657,212.787z"/>
	</g>
	<g>
		<radialGradient id="SVGID_2_" cx="154.708" cy="182.2793" r="162.4906" gradientUnits="userSpaceOnUse">
			<stop  offset="0.0495" style="stop-color:#FFFFFF"/>
			<stop  offset="0.1195" style="stop-color:#F0F9FD"/>
			<stop  offset="0.2444" style="stop-color:#D1EDF8"/>
			<stop  offset="0.4011" style="stop-color:#9EDCF2"/>
			<stop  offset="0.4665" style="stop-color:#98D9F1"/>
			<stop  offset="0.5515" style="stop-color:#86D0ED"/>
			<stop  offset="0.6467" style="stop-color:#67C5E8"/>
			<stop  offset="0.7198" style="stop-color:#40BBE3"/>
			<stop  offset="1" style="stop-color:#0578B7"/>
		</radialGradient>
		<path fill="url(#SVGID_2_)" d="M227.495,109.164c0-50.858-34.781-93.594-81.854-105.722
			c-41.057-6.983-80.869,16.138-78.073,51.917c2.875,36.825,27.199,45.505,50.762,53.805c29.82,10.502,53.282,21.516,53.282,58.652
			c0,26.729-17.142,48.333-52.369,50.486C179.112,217.809,227.495,169.146,227.495,109.164z"/>
		<radialGradient id="SVGID_3_" cx="117.6802" cy="186.0127" r="162.0484" gradientUnits="userSpaceOnUse">
			<stop  offset="0.0495" style="stop-color:#FFFFFF"/>
			<stop  offset="0.1176" style="stop-color:#F0F4FB"/>
			<stop  offset="0.2393" style="stop-color:#D0DFF3"/>
			<stop  offset="0.3994" style="stop-color:#9EC2E6"/>
			<stop  offset="0.4011" style="stop-color:#9EC1E6"/>
			<stop  offset="0.4583" style="stop-color:#99BCE4"/>
			<stop  offset="0.5326" style="stop-color:#8AAFDD"/>
			<stop  offset="0.6162" style="stop-color:#739BD1"/>
			<stop  offset="0.7061" style="stop-color:#5483C3"/>
			<stop  offset="0.7198" style="stop-color:#4E7FC1"/>
			<stop  offset="1" style="stop-color:#274A9F"/>
		</radialGradient>
		<path fill="url(#SVGID_3_)" d="M171.613,167.816c0-37.137-23.462-48.15-53.282-58.652c-23.563-8.3-47.887-16.98-50.762-53.805
			c-2.796-35.778,37.016-58.899,78.073-51.917C136.913,1.197,127.761,0,118.331,0C58.039,0,9.165,48.872,9.165,109.164
			c0,60.285,48.874,109.164,109.166,109.164c0.305,0,0.606-0.021,0.913-0.025C154.472,216.149,171.613,194.545,171.613,167.816z"/>
		<linearGradient id="SVGID_4_" gradientUnits="userSpaceOnUse" x1="142.0947" y1="13.1279" x2="142.0947" y2="85.1411">
			<stop  offset="0" style="stop-color:#CBDAEF"/>
			<stop  offset="0.2642" style="stop-color:#A3C5E7"/>
			<stop  offset="0.4615" style="stop-color:#8AB9E2"/>
			<stop  offset="0.7829" style="stop-color:#64BEE8"/>
			<stop  offset="1" style="stop-color:#49C1EB"/>
		</linearGradient>
		<path fill="url(#SVGID_4_)" d="M133.478,13.435c24.919,2.175,44.881,15.202,53.928,27.506
			c9.049,12.306,22.076,36.191,14.479,42.709c-7.602,6.513-23.522-10.136-52.12-14.839c-28.592-4.708-58.627,7.594-67.319-7.967
			C73.757,45.283,87.871,9.453,133.478,13.435z"/>
		<linearGradient id="SVGID_5_" gradientUnits="userSpaceOnUse" x1="71.4302" y1="24.269" x2="71.4302" y2="121.563">
			<stop  offset="0" style="stop-color:#EAEAF6"/>
			<stop  offset="0.1757" style="stop-color:#C2C8E6"/>
			<stop  offset="0.3549" style="stop-color:#A1AED9"/>
			<stop  offset="0.5025" style="stop-color:#8FA0D1"/>
			<stop  offset="0.5989" style="stop-color:#889BCF"/>
			<stop  offset="0.9571" style="stop-color:#ABC2E5"/>
			<stop  offset="1" style="stop-color:#B0C7E8"/>
		</linearGradient>
		<path fill="url(#SVGID_5_)" d="M22.769,84.215c9.732-37.443,28.103-51.489,43.478-59.946
			c-12.065,13.768-14.924,56.483,8.598,73.858c17.436,12.875,30.26,15.705,41.06,19.298c10.798,3.591,2.011,5.497-10.636,3.013
			c-12.643-2.49-31.844-12.25-48.824-15.548C39.468,101.592,17.988,102.615,22.769,84.215z"/>
	</g>
</g>
</svg>
